<svg width="40" height="40" viewBox="0 0 40 40" fill="none" xmlns="http://www.w3.org/2000/svg">
<path opacity="0.4" d="M36.6663 16.2487C35.983 16.2487 35.4163 15.682 35.4163 14.9987V11.6654C35.4163 7.36537 32.633 4.58203 28.333 4.58203H11.6663C7.36634 4.58203 4.58301 7.36537 4.58301 11.6654V14.9987C4.58301 15.682 4.01634 16.2487 3.33301 16.2487C2.64967 16.2487 2.08301 15.682 2.08301 14.9987V11.6654C2.08301 5.93203 5.93301 2.08203 11.6663 2.08203H28.333C34.0663 2.08203 37.9163 5.93203 37.9163 11.6654V14.9987C37.9163 15.682 37.3497 16.2487 36.6663 16.2487Z" fill="#E1E1E1"/>
<path opacity="0.4" d="M28.333 37.9167H11.6663C5.93301 37.9167 2.08301 34.0667 2.08301 28.3333V25C2.08301 24.3167 2.64967 23.75 3.33301 23.75C4.01634 23.75 4.58301 24.3167 4.58301 25V28.3333C4.58301 32.6333 7.36634 35.4167 11.6663 35.4167H28.333C32.633 35.4167 35.4163 32.6333 35.4163 28.3333V25C35.4163 24.3167 35.983 23.75 36.6663 23.75C37.3497 23.75 37.9163 24.3167 37.9163 25V28.3333C37.9163 34.0667 34.0663 37.9167 28.333 37.9167Z" fill="#E1E1E1"/>
<path d="M27.3335 13.6849L21.0669 10.3016C20.4002 9.95156 19.6169 9.95156 18.9502 10.3016L12.6835 13.6849C12.2335 13.9349 11.9502 14.4182 11.9502 14.9682C11.9502 15.5182 12.2335 16.0016 12.6835 16.2516L18.9502 19.635C19.2835 19.8183 19.6502 19.9016 20.0169 19.9016C20.3835 19.9016 20.7502 19.8183 21.0835 19.635L27.3502 16.2516C27.8002 16.0016 28.0835 15.5182 28.0835 14.9682C28.0669 14.4182 27.7835 13.9349 27.3335 13.6849Z" fill="#E1E1E1"/>
<path d="M17.9001 20.7847L12.0667 17.868C11.6167 17.6513 11.1 17.6681 10.6667 17.9347C10.2334 18.2014 9.9834 18.6514 9.9834 19.1514V24.668C9.9834 25.618 10.5167 26.4847 11.3667 26.9014L17.2001 29.8181C17.4001 29.9181 17.6167 29.968 17.8501 29.968C18.1167 29.968 18.3667 29.9013 18.6001 29.7513C19.0334 29.4847 19.2834 29.0347 19.2834 28.5347V23.018C19.2834 22.068 18.7667 21.218 17.9001 20.7847Z" fill="#E1E1E1"/>
<path d="M29.3169 17.9347C28.8835 17.6681 28.3669 17.6513 27.9169 17.868L22.0835 20.7847C21.2335 21.218 20.7002 22.068 20.7002 23.018V28.5347C20.7002 29.0347 20.9502 29.4847 21.3835 29.7513C21.6169 29.9013 21.8669 29.968 22.1335 29.968C22.3502 29.968 22.5669 29.9181 22.7835 29.8181L28.6169 26.9014C29.4669 26.4681 30.0002 25.618 30.0002 24.668V19.1514C30.0002 18.6514 29.7502 18.2014 29.3169 17.9347Z" fill="#E1E1E1"/>
</svg>
