<svg width="116" height="40" viewBox="0 0 116 40" fill="none" xmlns="http://www.w3.org/2000/svg">
<path opacity="0.4" d="M36.6663 16.2487C35.983 16.2487 35.4163 15.682 35.4163 14.9987V11.6654C35.4163 7.36537 32.633 4.58203 28.333 4.58203H11.6663C7.36634 4.58203 4.58301 7.36537 4.58301 11.6654V14.9987C4.58301 15.682 4.01634 16.2487 3.33301 16.2487C2.64967 16.2487 2.08301 15.682 2.08301 14.9987V11.6654C2.08301 5.93203 5.93301 2.08203 11.6663 2.08203H28.333C34.0663 2.08203 37.9163 5.93203 37.9163 11.6654V14.9987C37.9163 15.682 37.3497 16.2487 36.6663 16.2487Z" fill="#E1E1E1"/>
<path opacity="0.4" d="M28.333 37.9167H11.6663C5.93301 37.9167 2.08301 34.0667 2.08301 28.3333V25C2.08301 24.3167 2.64967 23.75 3.33301 23.75C4.01634 23.75 4.58301 24.3167 4.58301 25V28.3333C4.58301 32.6333 7.36634 35.4167 11.6663 35.4167H28.333C32.633 35.4167 35.4163 32.6333 35.4163 28.3333V25C35.4163 24.3167 35.983 23.75 36.6663 23.75C37.3497 23.75 37.9163 24.3167 37.9163 25V28.3333C37.9163 34.0667 34.0663 37.9167 28.333 37.9167Z" fill="#E1E1E1"/>
<path d="M27.3335 13.6849L21.0669 10.3016C20.4002 9.95156 19.6169 9.95156 18.9502 10.3016L12.6835 13.6849C12.2335 13.9349 11.9502 14.4182 11.9502 14.9682C11.9502 15.5182 12.2335 16.0016 12.6835 16.2516L18.9502 19.635C19.2835 19.8183 19.6502 19.9016 20.0169 19.9016C20.3835 19.9016 20.7502 19.8183 21.0835 19.635L27.3502 16.2516C27.8002 16.0016 28.0835 15.5182 28.0835 14.9682C28.0669 14.4182 27.7835 13.9349 27.3335 13.6849Z" fill="#E1E1E1"/>
<path d="M17.9001 20.7847L12.0667 17.868C11.6167 17.6513 11.1 17.6681 10.6667 17.9347C10.2334 18.2014 9.9834 18.6514 9.9834 19.1514V24.668C9.9834 25.618 10.5167 26.4847 11.3667 26.9014L17.2001 29.8181C17.4001 29.9181 17.6167 29.968 17.8501 29.968C18.1167 29.968 18.3667 29.9013 18.6001 29.7513C19.0334 29.4847 19.2834 29.0347 19.2834 28.5347V23.018C19.2834 22.068 18.7667 21.218 17.9001 20.7847Z" fill="#E1E1E1"/>
<path d="M29.3169 17.9347C28.8835 17.6681 28.3669 17.6513 27.9169 17.868L22.0835 20.7847C21.2335 21.218 20.7002 22.068 20.7002 23.018V28.5347C20.7002 29.0347 20.9502 29.4847 21.3835 29.7513C21.6169 29.9013 21.8669 29.968 22.1335 29.968C22.3502 29.968 22.5669 29.9181 22.7835 29.8181L28.6169 26.9014C29.4669 26.4681 30.0002 25.618 30.0002 24.668V19.1514C30.0002 18.6514 29.7502 18.2014 29.3169 17.9347Z" fill="#E1E1E1"/>
<path d="M47.8267 27H45.4972L50.7315 12.4545H53.267L58.5014 27H56.1719L52.0597 15.0966H51.946L47.8267 27ZM48.2173 21.304H55.7741V23.1506H48.2173V21.304ZM62.555 12.4545V27H60.4315V12.4545H62.555ZM67.5355 12.4545V27H65.4119V12.4545H67.5355ZM75.0941 27.2202C74.0193 27.2202 73.0936 26.9905 72.3171 26.5312C71.5453 26.0672 70.9487 25.4162 70.5273 24.5781C70.1107 23.7353 69.9023 22.7481 69.9023 21.6165C69.9023 20.4991 70.1107 19.5142 70.5273 18.6619C70.9487 17.8097 71.5359 17.1444 72.2887 16.6662C73.0463 16.188 73.9317 15.9489 74.945 15.9489C75.5605 15.9489 76.1571 16.0507 76.7347 16.2543C77.3124 16.4579 77.8308 16.7775 78.2901 17.2131C78.7494 17.6487 79.1116 18.2145 79.3768 18.9105C79.6419 19.6018 79.7745 20.4422 79.7745 21.4318V22.1847H71.1026V20.5938H77.6935C77.6935 20.035 77.5799 19.5402 77.3526 19.1094C77.1254 18.6738 76.8058 18.3305 76.3938 18.0795C75.9866 17.8286 75.5084 17.7031 74.9592 17.7031C74.3626 17.7031 73.8417 17.8499 73.3967 18.1435C72.9563 18.4323 72.6154 18.8111 72.3739 19.2798C72.1372 19.7438 72.0188 20.2481 72.0188 20.7926V22.0355C72.0188 22.7647 72.1467 23.3849 72.4023 23.8963C72.6628 24.4077 73.025 24.7983 73.489 25.0682C73.953 25.3333 74.4951 25.4659 75.1154 25.4659C75.5179 25.4659 75.8848 25.4091 76.2163 25.2955C76.5477 25.1771 76.8342 25.0019 77.0756 24.7699C77.3171 24.5379 77.5018 24.2514 77.6296 23.9105L79.6396 24.2727C79.4786 24.8646 79.1897 25.383 78.7731 25.8281C78.3612 26.2685 77.8427 26.6117 77.2177 26.858C76.5974 27.0994 75.8896 27.2202 75.0941 27.2202ZM85.3054 27.2415C84.6141 27.2415 83.9891 27.1136 83.4304 26.858C82.8717 26.5975 82.429 26.2211 82.1023 25.7287C81.7803 25.2363 81.6193 24.6326 81.6193 23.9176C81.6193 23.3021 81.7377 22.7955 81.9744 22.3977C82.2112 22 82.5308 21.6851 82.9332 21.4531C83.3357 21.2211 83.7855 21.0459 84.2827 20.9276C84.7798 20.8092 85.2865 20.7192 85.8026 20.6577C86.456 20.5819 86.9863 20.5204 87.3935 20.473C87.8007 20.4209 88.0966 20.3381 88.2812 20.2244C88.4659 20.1108 88.5582 19.9261 88.5582 19.6705V19.6207C88.5582 19.0005 88.383 18.5199 88.0327 18.179C87.687 17.8381 87.1709 17.6676 86.4844 17.6676C85.7694 17.6676 85.206 17.8262 84.794 18.1435C84.3868 18.456 84.1051 18.804 83.9489 19.1875L81.9531 18.733C82.1899 18.0701 82.5355 17.535 82.9901 17.1278C83.4493 16.7159 83.9773 16.4176 84.5739 16.233C85.1705 16.0436 85.7978 15.9489 86.456 15.9489C86.8916 15.9489 87.3532 16.0009 87.8409 16.1051C88.3333 16.2045 88.7926 16.3892 89.2188 16.6591C89.6496 16.929 90.0024 17.3149 90.277 17.8168C90.5516 18.3139 90.6889 18.9602 90.6889 19.7557V27H88.6151V25.5085H88.5298C88.3925 25.7831 88.1866 26.053 87.9119 26.3182C87.6373 26.5833 87.2846 26.8035 86.8537 26.9787C86.4228 27.1539 85.9067 27.2415 85.3054 27.2415ZM85.767 25.5369C86.3542 25.5369 86.8561 25.4209 87.2727 25.1889C87.6941 24.9569 88.0137 24.6539 88.2315 24.2798C88.4541 23.901 88.5653 23.4962 88.5653 23.0653V21.6591C88.4896 21.7348 88.3428 21.8059 88.125 21.8722C87.9119 21.9337 87.6681 21.9882 87.3935 22.0355C87.1188 22.0781 86.8513 22.1184 86.5909 22.1562C86.3305 22.1894 86.1127 22.2178 85.9375 22.2415C85.5256 22.2936 85.1491 22.3812 84.8082 22.5043C84.4721 22.6274 84.2022 22.8049 83.9986 23.0369C83.7997 23.2642 83.7003 23.5672 83.7003 23.946C83.7003 24.4716 83.8944 24.8693 84.2827 25.1392C84.6709 25.4044 85.1657 25.5369 85.767 25.5369ZM95.641 20.5227V27H93.5174V16.0909H95.5558V17.8665H95.6907C95.9416 17.2888 96.3346 16.8248 96.8697 16.4744C97.4094 16.1241 98.0889 15.9489 98.908 15.9489C99.6514 15.9489 100.302 16.1051 100.861 16.4176C101.42 16.7254 101.853 17.1847 102.161 17.7955C102.469 18.4062 102.623 19.1615 102.623 20.0611V27H100.499V20.3168C100.499 19.526 100.293 18.9081 99.881 18.4631C99.4691 18.0133 98.9033 17.7884 98.1836 17.7884C97.6912 17.7884 97.2532 17.8949 96.8697 18.108C96.4909 18.321 96.1902 18.6335 95.9677 19.0455C95.7499 19.4527 95.641 19.9451 95.641 20.5227ZM108.645 27.2415C107.954 27.2415 107.329 27.1136 106.77 26.858C106.212 26.5975 105.769 26.2211 105.442 25.7287C105.12 25.2363 104.959 24.6326 104.959 23.9176C104.959 23.3021 105.078 22.7955 105.314 22.3977C105.551 22 105.871 21.6851 106.273 21.4531C106.676 21.2211 107.125 21.0459 107.623 20.9276C108.12 20.8092 108.626 20.7192 109.142 20.6577C109.796 20.5819 110.326 20.5204 110.733 20.473C111.141 20.4209 111.436 20.3381 111.621 20.2244C111.806 20.1108 111.898 19.9261 111.898 19.6705V19.6207C111.898 19.0005 111.723 18.5199 111.373 18.179C111.027 17.8381 110.511 17.6676 109.824 17.6676C109.109 17.6676 108.546 17.8262 108.134 18.1435C107.727 18.456 107.445 18.804 107.289 19.1875L105.293 18.733C105.53 18.0701 105.875 17.535 106.33 17.1278C106.789 16.7159 107.317 16.4176 107.914 16.233C108.51 16.0436 109.138 15.9489 109.796 15.9489C110.231 15.9489 110.693 16.0009 111.181 16.1051C111.673 16.2045 112.132 16.3892 112.559 16.6591C112.989 16.929 113.342 17.3149 113.617 17.8168C113.891 18.3139 114.029 18.9602 114.029 19.7557V27H111.955V25.5085H111.87C111.732 25.7831 111.526 26.053 111.252 26.3182C110.977 26.5833 110.624 26.8035 110.194 26.9787C109.763 27.1539 109.247 27.2415 108.645 27.2415ZM109.107 25.5369C109.694 25.5369 110.196 25.4209 110.613 25.1889C111.034 24.9569 111.354 24.6539 111.571 24.2798C111.794 23.901 111.905 23.4962 111.905 23.0653V21.6591C111.829 21.7348 111.683 21.8059 111.465 21.8722C111.252 21.9337 111.008 21.9882 110.733 22.0355C110.459 22.0781 110.191 22.1184 109.931 22.1562C109.67 22.1894 109.453 22.2178 109.277 22.2415C108.865 22.2936 108.489 22.3812 108.148 22.5043C107.812 22.6274 107.542 22.8049 107.338 23.0369C107.14 23.2642 107.04 23.5672 107.04 23.946C107.04 24.4716 107.234 24.8693 107.623 25.1392C108.011 25.4044 108.506 25.5369 109.107 25.5369Z" fill="#E1E1E1"/>
</svg>
